<?xml version="1.0" encoding="UTF-8"?>
<svg width="32px" height="30px" viewBox="0 0 32 30" version="1.1" xmlns="http://www.w3.org/2000/svg" xmlns:xlink="http://www.w3.org/1999/xlink">
    <title>note0</title>
    <g id="Page-1" stroke="none" stroke-width="1" fill="none" fill-rule="evenodd">
        <g id="notepalette">
            <g id="Notes" transform="translate(0.000000, -3.000000)" fill="#000000" fill-rule="nonzero">
                <path d="M21.54,23.79 L19.71,23.79 L19.71,19.8 C19.2299976,20.9800059 18.0100098,21.9399963 16.05,22.68 C14.4099918,23.3000031 12.8300076,23.61 11.31,23.61 C9.8499927,23.61 8.2500087,23.2500036 6.51,22.53 C4.5499902,21.6899958 3.2900028,20.7000057 2.73,19.56 L2.73,23.79 L0.9,23.79 L0.9,13.47 L2.73,13.47 L2.73,17.28 C3.2700027,16.0999941 4.4699907,15.1700034 6.33,14.49 C7.8900078,13.889997 9.4399923,13.59 10.98,13.59 C12.6800085,13.59 14.3499918,13.9099968 15.99,14.55 C17.9500098,15.2900037 19.1899974,16.3299933 19.71,17.67 L19.71,13.47 L21.54,13.47 L21.54,23.79 Z M14.76,20.07 C14.76,18.5299923 14.4800028,17.260005 13.92,16.26 C13.2199965,14.9799936 12.1600071,14.34 10.74,14.34 C8.539989,14.34 7.44,15.3299901 7.44,17.31 C7.44,18.8700078 7.739997,20.1399951 8.34,21.12 C9.0600036,22.3400061 10.1499927,22.95 11.61,22.95 C13.7100105,22.95 14.76,21.9900096 14.76,20.07 Z" id="‚"></path>
            </g>
        </g>
    </g>
</svg>
