<?xml version="1.0" encoding="UTF-8"?>
<svg width="32px" height="38px" viewBox="0 0 32 38" version="1.1" xmlns="http://www.w3.org/2000/svg" xmlns:xlink="http://www.w3.org/1999/xlink">
    <title>rest32d</title>
    <g id="Page-1" stroke="none" stroke-width="1" fill="none" fill-rule="evenodd">
        <g id="notepalette" transform="translate(-162.000000, -231.000000)">
            <g id="Dotted" transform="translate(120.000000, -3.000000)" fill="#000000" fill-rule="nonzero">
                <path d="M50.31,269.82 C50.0299986,269.940001 49.790001,270 49.59,270 C49.1499978,270 48.93,269.800002 48.93,269.4 C48.93,269.239999 48.9899994,269.010001 49.11,268.71 L51.78,260.67 L51.72,260.64 C51.2399976,261.080002 50.6550035,261.414999 49.965,261.645 C49.2749965,261.875001 48.630003,261.99 48.03,261.99 C47.3299965,261.99 46.7300025,261.810002 46.23,261.45 C45.7299975,261.089998 45.48,260.530004 45.48,259.77 C45.48,259.229997 45.674998,258.740002 46.065,258.3 C46.455002,257.859998 47.0299962,257.64 47.79,257.64 C48.3500028,257.64 48.8399979,257.819998 49.26,258.18 C49.6800021,258.540002 49.89,259.039997 49.89,259.68 C49.89,259.900001 49.8500004,260.119999 49.77,260.34 C50.2300023,260.32 50.6249983,260.230001 50.955,260.07 C51.2850016,259.909999 51.5699988,259.695001 51.81,259.425 C52.0500012,259.154999 52.2549992,258.830002 52.425,258.45 C52.5950008,258.069998 52.7599992,257.640002 52.92,257.16 L54.09,253.62 L54.03,253.59 C53.5499976,254.070002 52.9500036,254.434999 52.23,254.685 C51.5099964,254.935001 50.8300032,255.06 50.19,255.06 C49.5099966,255.06 48.9200025,254.880002 48.42,254.52 C47.9199975,254.159998 47.67,253.590004 47.67,252.81 C47.67,252.269997 47.864998,251.780002 48.255,251.34 C48.645002,250.899998 49.2199962,250.68 49.98,250.68 C50.5400028,250.68 51.0299979,250.859998 51.45,251.22 C51.8700021,251.580002 52.08,252.089997 52.08,252.75 C52.08,252.990001 52.0400004,253.199999 51.96,253.38 C52.4800026,253.36 52.9149982,253.265001 53.265,253.095 C53.6150017,252.924999 53.9099988,252.690001 54.15,252.39 C54.3900012,252.089999 54.5999991,251.725002 54.78,251.295 C54.9600009,250.864998 55.1399991,250.390003 55.32,249.87 L56.37,246.81 L56.31,246.78 C55.8299976,247.220002 55.2300036,247.559999 54.51,247.8 C53.7899964,248.040001 53.1200031,248.16 52.5,248.16 C51.7999965,248.16 51.2000025,247.975002 50.7,247.605 C50.1999975,247.234998 49.95,246.670004 49.95,245.91 C49.95,245.369997 50.149998,244.880002 50.55,244.44 C50.950002,243.999998 51.5299962,243.78 52.29,243.78 C52.8500028,243.78 53.3399979,243.959998 53.76,244.32 C54.1800021,244.680002 54.39,245.189997 54.39,245.85 C54.39,246.090001 54.3500004,246.299999 54.27,246.48 C54.8500029,246.46 55.3249981,246.365001 55.695,246.195 C56.0650019,246.024999 56.3749988,245.790002 56.625,245.49 C56.8750012,245.189999 57.099999,244.825002 57.3,244.395 C57.500001,243.964998 57.7099989,243.490003 57.93,242.97 C58.0300005,242.709999 58.184999,242.565 58.395,242.535 C58.605001,242.505 58.7299998,242.49 58.77,242.49 L50.31,269.82 Z" id="g"></path>
                <circle id="Oval-Copy-15" cx="63" cy="249" r="2"></circle>
            </g>
        </g>
    </g>
</svg>
